<mxfile host="app.diagrams.net" modified="2020-12-10T10:20:13.107Z" agent="5.0 (Windows NT 6.1; Win64; x64) AppleWebKit/537.36 (KHTML, like Gecko) Chrome/87.0.4280.66 Safari/537.36" etag="iygaeLoTH6mCKD0x5g1D" version="14.0.0" type="github">
  <diagram id="C5RBs43oDa-KdzZeNtuy" name="Page-1">
    <mxGraphModel dx="1102" dy="582" grid="1" gridSize="10" guides="1" tooltips="1" connect="1" arrows="1" fold="1" page="1" pageScale="1" pageWidth="827" pageHeight="1169" math="0" shadow="0">
      <root>
        <mxCell id="WIyWlLk6GJQsqaUBKTNV-0" />
        <mxCell id="WIyWlLk6GJQsqaUBKTNV-1" parent="WIyWlLk6GJQsqaUBKTNV-0" />
        <mxCell id="6lA8_1LxBl--lgNPecFX-0" value="Outlet DC" style="whiteSpace=wrap;html=1;aspect=fixed;sketch=1;" vertex="1" parent="WIyWlLk6GJQsqaUBKTNV-1">
          <mxGeometry x="520" y="280" width="80" height="80" as="geometry" />
        </mxCell>
        <mxCell id="6lA8_1LxBl--lgNPecFX-1" value="FP DC" style="whiteSpace=wrap;html=1;aspect=fixed;sketch=1;" vertex="1" parent="WIyWlLk6GJQsqaUBKTNV-1">
          <mxGeometry x="240" y="280" width="80" height="80" as="geometry" />
        </mxCell>
        <mxCell id="6lA8_1LxBl--lgNPecFX-2" value="Retail" style="rhombus;whiteSpace=wrap;html=1;sketch=1;" vertex="1" parent="WIyWlLk6GJQsqaUBKTNV-1">
          <mxGeometry x="190" y="50" width="150" height="110" as="geometry" />
        </mxCell>
        <mxCell id="6lA8_1LxBl--lgNPecFX-3" value="Outlet" style="ellipse;whiteSpace=wrap;html=1;aspect=fixed;sketch=1;" vertex="1" parent="WIyWlLk6GJQsqaUBKTNV-1">
          <mxGeometry x="520" y="460" width="80" height="80" as="geometry" />
        </mxCell>
        <mxCell id="6lA8_1LxBl--lgNPecFX-8" value="Allocation" style="text;html=1;strokeColor=none;fillColor=none;align=center;verticalAlign=middle;whiteSpace=wrap;rounded=0;sketch=1;" vertex="1" parent="WIyWlLk6GJQsqaUBKTNV-1">
          <mxGeometry x="580" y="400" width="40" height="20" as="geometry" />
        </mxCell>
        <mxCell id="6lA8_1LxBl--lgNPecFX-13" value="" style="shape=flexArrow;endArrow=classic;html=1;shadow=1;fillColor=#66FF66;" edge="1" parent="WIyWlLk6GJQsqaUBKTNV-1">
          <mxGeometry width="50" height="50" relative="1" as="geometry">
            <mxPoint x="270" y="280" as="sourcePoint" />
            <mxPoint x="270" y="160" as="targetPoint" />
          </mxGeometry>
        </mxCell>
        <mxCell id="6lA8_1LxBl--lgNPecFX-16" value="" style="shape=flexArrow;endArrow=classic;html=1;shadow=1;entryX=0;entryY=0;entryDx=0;entryDy=0;fontColor=#FF8519;labelBackgroundColor=#FF8F57;labelBorderColor=#3399FF;fillColor=#FF742E;" edge="1" parent="WIyWlLk6GJQsqaUBKTNV-1">
          <mxGeometry width="50" height="50" relative="1" as="geometry">
            <mxPoint x="331" y="110" as="sourcePoint" />
            <mxPoint x="521" y="280" as="targetPoint" />
          </mxGeometry>
        </mxCell>
        <mxCell id="6lA8_1LxBl--lgNPecFX-19" value="" style="shape=flexArrow;endArrow=classic;html=1;shadow=1;fillColor=#FF742E;" edge="1" parent="WIyWlLk6GJQsqaUBKTNV-1">
          <mxGeometry width="50" height="50" relative="1" as="geometry">
            <mxPoint x="559.5" y="370" as="sourcePoint" />
            <mxPoint x="559.5" y="450" as="targetPoint" />
          </mxGeometry>
        </mxCell>
        <mxCell id="6lA8_1LxBl--lgNPecFX-20" value="RTO" style="text;html=1;strokeColor=none;fillColor=none;align=center;verticalAlign=middle;whiteSpace=wrap;rounded=0;sketch=1;" vertex="1" parent="WIyWlLk6GJQsqaUBKTNV-1">
          <mxGeometry x="440" y="190" width="40" height="20" as="geometry" />
        </mxCell>
        <mxCell id="6lA8_1LxBl--lgNPecFX-22" value="" style="shape=flexArrow;endArrow=classic;html=1;shadow=1;fillColor=#66FF66;" edge="1" parent="WIyWlLk6GJQsqaUBKTNV-1">
          <mxGeometry width="50" height="50" relative="1" as="geometry">
            <mxPoint x="504" y="319.5" as="sourcePoint" />
            <mxPoint x="324" y="319.5" as="targetPoint" />
            <Array as="points">
              <mxPoint x="494" y="319.5" />
            </Array>
          </mxGeometry>
        </mxCell>
        <mxCell id="6lA8_1LxBl--lgNPecFX-23" value="" style="shape=flexArrow;endArrow=classic;html=1;shadow=1;fillColor=#66FF66;" edge="1" parent="WIyWlLk6GJQsqaUBKTNV-1">
          <mxGeometry width="50" height="50" relative="1" as="geometry">
            <mxPoint x="360" y="100" as="sourcePoint" />
            <mxPoint x="540" y="100" as="targetPoint" />
          </mxGeometry>
        </mxCell>
        <mxCell id="6lA8_1LxBl--lgNPecFX-24" value="" style="shape=flexArrow;endArrow=classic;html=1;shadow=1;fillColor=#66FF66;" edge="1" parent="WIyWlLk6GJQsqaUBKTNV-1">
          <mxGeometry width="50" height="50" relative="1" as="geometry">
            <mxPoint x="540" y="110" as="sourcePoint" />
            <mxPoint x="540" y="240" as="targetPoint" />
          </mxGeometry>
        </mxCell>
        <mxCell id="6lA8_1LxBl--lgNPecFX-26" value="Sorting" style="text;html=1;strokeColor=none;fillColor=none;align=center;verticalAlign=middle;whiteSpace=wrap;rounded=0;sketch=1;" vertex="1" parent="WIyWlLk6GJQsqaUBKTNV-1">
          <mxGeometry x="390" y="290" width="40" height="20" as="geometry" />
        </mxCell>
        <mxCell id="6lA8_1LxBl--lgNPecFX-27" value="Allocation" style="text;html=1;strokeColor=none;fillColor=none;align=center;verticalAlign=middle;whiteSpace=wrap;rounded=0;sketch=1;fontColor=#000000;" vertex="1" parent="WIyWlLk6GJQsqaUBKTNV-1">
          <mxGeometry x="220" y="220" width="40" height="20" as="geometry" />
        </mxCell>
        <mxCell id="6lA8_1LxBl--lgNPecFX-29" value="leftover return" style="text;html=1;strokeColor=none;fillColor=none;align=center;verticalAlign=middle;whiteSpace=wrap;rounded=0;sketch=1;fontColor=#000000;" vertex="1" parent="WIyWlLk6GJQsqaUBKTNV-1">
          <mxGeometry x="550" y="130" width="60" height="30" as="geometry" />
        </mxCell>
      </root>
    </mxGraphModel>
  </diagram>
</mxfile>
